<?xml version="1.0" encoding="utf-8"?>
<!-- Generator: Adobe Illustrator 26.1.0, SVG Export Plug-In . SVG Version: 6.00 Build 0)  -->
<svg version="1.1" id="Layer_1" xmlns="http://www.w3.org/2000/svg" xmlns:xlink="http://www.w3.org/1999/xlink" x="0px" y="0px"
	 viewBox="0 0 512 512" style="enable-background:new 0 0 512 512;" xml:space="preserve">
<style type="text/css">
	.st0{fill:url(#SVGID_1_);}
	.st1{fill:url(#SVGID_00000177459103046687357100000006919340317368450948_);}
	.st2{fill:url(#SVGID_00000168801267956733511990000000604500976284238782_);}
	.st3{fill:#FFFFFF;}
	.st4{fill:#E6A749;}
	.st5{fill:url(#SVGID_00000127758085893733120980000014000354372921371836_);}
</style>
<g>
	
		<linearGradient id="SVGID_1_" gradientUnits="userSpaceOnUse" x1="2.151132e-04" y1="511.999" x2="1.0002" y2="511.999" gradientTransform="matrix(3.135096e-14 -512 -512 -3.135096e-14 262400 512)">
		<stop  offset="0" style="stop-color:#E6A749"/>
		<stop  offset="4.792333e-09" style="stop-color:#E6A749"/>
		<stop  offset="1" style="stop-color:#F0D240"/>
	</linearGradient>
	<path class="st0" d="M136.5,401.9c-19.9,0-36-16.1-36-36v-200c0-19.9,16.1-36,36-36h240c19.9,0,36,16.1,36,36v200
		c0,19.9-16.1,36-36,36H136.5 M380.5,125.4h-248c-20.5,0-37.2,16.7-37.2,37.2v206.7c0,20.5,16.7,37.2,37.2,37.2h248
		c20.5,0,37.2-16.7,37.2-37.2V162.6C417.7,142,401,125.4,380.5,125.4 M132.5,422.4c-29.3,0-53.2-23.9-53.2-53.2V162.6
		c0-29.3,23.9-53.2,53.2-53.2h248c29.3,0,53.2,23.9,53.2,53.2v206.7c0,29.3-23.9,53.2-53.2,53.2H132.5 M400.5-0.1h-288
		c-61.9,0-112,50.1-112,112v288c0,61.9,50.1,112,112,112h288c61.9,0,112-50.1,112-112v-288C512.5,50,462.4-0.1,400.5-0.1"/>
	
		<linearGradient id="SVGID_00000003098757127507786070000004476740320398903229_" gradientUnits="userSpaceOnUse" x1="3.519169e-04" y1="511.9984" x2="1.0004" y2="511.9984" gradientTransform="matrix(1.916893e-14 -313.0524 -313.0524 -1.916893e-14 160538.8438 422.5262)">
		<stop  offset="0" style="stop-color:#FFE35F"/>
		<stop  offset="1" style="stop-color:#E6A749"/>
		<stop  offset="1" style="stop-color:#E6A749"/>
	</linearGradient>
	<path style="fill:url(#SVGID_00000003098757127507786070000004476740320398903229_);" d="M132.5,406.4c-20.5,0-37.2-16.7-37.2-37.2
		V162.6c0-20.5,16.7-37.2,37.2-37.2h248c20.5,0,37.2,16.7,37.2,37.2v206.7c0,20.5-16.7,37.2-37.2,37.2H132.5 M380.5,109.4h-248
		c-29.3,0-53.2,23.9-53.2,53.2v206.7c0,29.3,23.9,53.2,53.2,53.2h248c29.3,0,53.2-23.9,53.2-53.2V162.6
		C433.7,133.2,409.8,109.4,380.5,109.4"/>
	
		<linearGradient id="SVGID_00000130635448119692302350000016371285527725592996_" gradientUnits="userSpaceOnUse" x1="2.151132e-04" y1="511.999" x2="1.0002" y2="511.999" gradientTransform="matrix(3.135096e-14 -512 -512 -3.135096e-14 262400 512)">
		<stop  offset="0" style="stop-color:#EBB96D"/>
		<stop  offset="4.792333e-09" style="stop-color:#EBB96D"/>
		<stop  offset="1" style="stop-color:#F3DB66"/>
	</linearGradient>
	<path style="fill:url(#SVGID_00000130635448119692302350000016371285527725592996_);" d="M376.5,129.9h-240c-19.9,0-36,16.1-36,36
		v200c0,19.9,16.1,36,36,36h240c19.9,0,36-16.1,36-36v-200C412.5,146,396.4,129.9,376.5,129.9"/>
	<path class="st3" d="M172.5,103.9L172.5,103.9c8.8,0,16,7.2,16,16v40c0,8.8-7.2,16-16,16s-16-7.2-16-16v-40
		C156.5,111.1,163.7,103.9,172.5,103.9z"/>
	<path class="st3" d="M256.5,103.9L256.5,103.9c8.8,0,16,7.2,16,16v40c0,8.8-7.2,16-16,16c-8.8,0-16-7.2-16-16v-40
		C240.5,111.1,247.7,103.9,256.5,103.9z"/>
	<path class="st3" d="M340.5,103.9L340.5,103.9c8.8,0,16,7.2,16,16v40c0,8.8-7.2,16-16,16s-16-7.2-16-16v-40
		C324.5,111.1,331.7,103.9,340.5,103.9z"/>
	<rect x="100.5" y="203.9" class="st4" width="312" height="16.3"/>
	<path class="st3" d="M250,354.9c-4.4,0-8.8-1.7-12.1-5l-34.3-34.3c-6.7-6.7-6.7-17.6,0-24.3s17.6-6.7,24.3,0l22.1,22.1l56.6-56.6
		c6.7-6.7,17.6-6.7,24.3,0c6.7,6.7,6.7,17.6,0,24.3l-68.7,68.7C258.7,353.2,254.3,354.9,250,354.9z"/>
	
		<linearGradient id="SVGID_00000081632838031379951140000015504352365407167371_" gradientUnits="userSpaceOnUse" x1="8.951566e-04" y1="511.9959" x2="1.0009" y2="511.9959" gradientTransform="matrix(7.533882e-15 -123.0376 -123.0376 -7.533882e-15 63261.9609 364.9641)">
		<stop  offset="0" style="stop-color:#FFE35F"/>
		<stop  offset="1" style="stop-color:#E6A749"/>
		<stop  offset="1" style="stop-color:#E6A749"/>
	</linearGradient>
	<path style="fill:url(#SVGID_00000081632838031379951140000015504352365407167371_);" d="M318.7,251.8c4.4,0,8.8,1.7,12.1,5
		c6.7,6.7,6.7,17.6,0,24.3l-68.7,68.7c-3.3,3.3-7.7,5-12.1,5c-4.4,0-8.8-1.7-12.1-5l-34.3-34.3c-6.7-6.7-6.7-17.6,0-24.3
		c3.3-3.3,7.7-5,12.1-5s8.8,1.7,12.1,5l22.1,22.1l56.6-56.6C309.9,253.5,314.3,251.8,318.7,251.8 M318.7,241.8
		c-7.3,0-14.1,2.8-19.2,8L250,299.3l-15.1-15.1c-5.1-5.1-11.9-8-19.2-8c-7.3,0-14.1,2.8-19.2,8c-10.6,10.6-10.6,27.8,0,38.4
		l34.3,34.3c5.1,5.1,11.9,8,19.2,8c7.3,0,14.1-2.8,19.2-8l68.7-68.7c10.6-10.6,10.6-27.8,0-38.4
		C332.8,244.6,325.9,241.8,318.7,241.8z"/>
	<path class="st3" d="M376.5,129.9c19.9,0,36,16.1,36,36v200c0,19.9-16.1,36-36,36h-240c-19.9,0-36-16.1-36-36v-200
		c0-19.9,16.1-36,36-36H376.5 M376.5,121.9h-240c-24.3,0-44,19.7-44,44v200c0,24.3,19.7,44,44,44h240c24.3,0,44-19.7,44-44v-200
		C420.5,141.6,400.8,121.9,376.5,121.9z"/>
</g>
</svg>
