<?xml version="1.0" encoding="utf-8"?>
<!-- Generator: Adobe Illustrator 26.1.0, SVG Export Plug-In . SVG Version: 6.00 Build 0)  -->
<svg version="1.1" id="Layer_1" xmlns="http://www.w3.org/2000/svg" xmlns:xlink="http://www.w3.org/1999/xlink" x="0px" y="0px"
	 viewBox="0 0 512 512" style="enable-background:new 0 0 512 512;" xml:space="preserve">
<style type="text/css">
	.st0{fill:url(#SVGID_1_);}
	.st1{fill:url(#SVGID_00000024695368916911486590000007442603911851283631_);}
	.st2{fill:url(#SVGID_00000000181952628260164040000016428687320833124764_);}
	.st3{fill:#FFFFFF;}
	.st4{fill:#E6A749;}
	.st5{fill:url(#SVGID_00000183933105512536969050000012222599211694032296_);}
</style>
<g>
	
		<linearGradient id="SVGID_1_" gradientUnits="userSpaceOnUse" x1="0" y1="512" x2="1" y2="512" gradientTransform="matrix(3.135096e-14 -512 -512 -3.135096e-14 262400 512)">
		<stop  offset="0" style="stop-color:#E6A749"/>
		<stop  offset="4.792333e-09" style="stop-color:#E6A749"/>
		<stop  offset="1" style="stop-color:#F0D240"/>
	</linearGradient>
	<path class="st0" d="M136,402c-19.9,0-36-16.1-36-36V166c0-19.9,16.1-36,36-36h240c19.9,0,36,16.1,36,36v200c0,19.9-16.1,36-36,36
		H136 M380,125.5H132c-20.5,0-37.2,16.7-37.2,37.2v206.7c0,20.5,16.7,37.2,37.2,37.2h248c20.5,0,37.2-16.7,37.2-37.2V162.7
		C417.2,142.1,400.5,125.5,380,125.5 M132,422.5c-29.3,0-53.2-23.9-53.2-53.2V162.7c0-29.3,23.9-53.2,53.2-53.2h248
		c29.3,0,53.2,23.9,53.2,53.2v206.7c0,29.3-23.9,53.2-53.2,53.2H132 M400,0H112C50.1,0,0,50.1,0,112v288c0,61.9,50.1,112,112,112
		h288c61.9,0,112-50.1,112-112V112C512,50.1,461.9,0,400,0"/>
	
		<linearGradient id="SVGID_00000052063943703446279760000007909262594719989150_" gradientUnits="userSpaceOnUse" x1="9.748328e-08" y1="512" x2="1" y2="512" gradientTransform="matrix(1.916893e-14 -313.0524 -313.0524 -1.916893e-14 160538.8438 422.5262)">
		<stop  offset="0" style="stop-color:#FFE35F"/>
		<stop  offset="1" style="stop-color:#E6A749"/>
		<stop  offset="1" style="stop-color:#E6A749"/>
	</linearGradient>
	<path style="fill:url(#SVGID_00000052063943703446279760000007909262594719989150_);" d="M132,406.5c-20.5,0-37.2-16.7-37.2-37.2
		V162.7c0-20.5,16.7-37.2,37.2-37.2h248c20.5,0,37.2,16.7,37.2,37.2v206.7c0,20.5-16.7,37.2-37.2,37.2H132 M380,109.5H132
		c-29.3,0-53.2,23.9-53.2,53.2v206.7c0,29.3,23.9,53.2,53.2,53.2h248c29.3,0,53.2-23.9,53.2-53.2V162.7
		C433.2,133.3,409.3,109.5,380,109.5"/>
	
		<linearGradient id="SVGID_00000165204309619690677370000009732846138061792657_" gradientUnits="userSpaceOnUse" x1="0" y1="512" x2="1" y2="512" gradientTransform="matrix(3.135096e-14 -512 -512 -3.135096e-14 262400 512)">
		<stop  offset="0" style="stop-color:#EBB96D"/>
		<stop  offset="4.792333e-09" style="stop-color:#EBB96D"/>
		<stop  offset="1" style="stop-color:#F3DB66"/>
	</linearGradient>
	<path style="fill:url(#SVGID_00000165204309619690677370000009732846138061792657_);" d="M376,130H136c-19.9,0-36,16.1-36,36v200
		c0,19.9,16.1,36,36,36h240c19.9,0,36-16.1,36-36V166C412,146.1,395.9,130,376,130"/>
	<path class="st3" d="M172,104L172,104c8.8,0,16,7.2,16,16v40c0,8.8-7.2,16-16,16s-16-7.2-16-16v-40C156,111.2,163.2,104,172,104z"
		/>
	<path class="st3" d="M256,104L256,104c8.8,0,16,7.2,16,16v40c0,8.8-7.2,16-16,16c-8.8,0-16-7.2-16-16v-40
		C240,111.2,247.2,104,256,104z"/>
	<path class="st3" d="M340,104L340,104c8.8,0,16,7.2,16,16v40c0,8.8-7.2,16-16,16s-16-7.2-16-16v-40C324,111.2,331.2,104,340,104z"
		/>
	<rect x="100" y="204" class="st4" width="312" height="16.3"/>
	<path class="st3" d="M249.5,355c-4.4,0-8.8-1.7-12.1-5l-34.3-34.3c-6.7-6.7-6.7-17.6,0-24.3s17.6-6.7,24.3,0l22.1,22.1l56.6-56.6
		c6.7-6.7,17.6-6.7,24.3,0c6.7,6.7,6.7,17.6,0,24.3l-68.7,68.7C258.2,353.3,253.8,355,249.5,355z"/>
	
		<linearGradient id="SVGID_00000092438175150012649380000001805629800191863941_" gradientUnits="userSpaceOnUse" x1="9.094947e-13" y1="512" x2="1" y2="512" gradientTransform="matrix(7.533882e-15 -123.0376 -123.0376 -7.533882e-15 63261.9609 364.9641)">
		<stop  offset="0" style="stop-color:#FFE35F"/>
		<stop  offset="1" style="stop-color:#E6A749"/>
		<stop  offset="1" style="stop-color:#E6A749"/>
	</linearGradient>
	<path style="fill:url(#SVGID_00000092438175150012649380000001805629800191863941_);" d="M318.2,251.9c4.4,0,8.8,1.7,12.1,5
		c6.7,6.7,6.7,17.6,0,24.3l-68.7,68.7c-3.3,3.3-7.7,5-12.1,5c-4.4,0-8.8-1.7-12.1-5l-34.3-34.3c-6.7-6.7-6.7-17.6,0-24.3
		c3.3-3.3,7.7-5,12.1-5s8.8,1.7,12.1,5l22.1,22.1l56.6-56.6C309.4,253.6,313.8,251.9,318.2,251.9 M318.2,241.9
		c-7.3,0-14.1,2.8-19.2,8l-49.5,49.5l-15.1-15.1c-5.1-5.1-11.9-8-19.2-8c-7.3,0-14.1,2.8-19.2,8c-10.6,10.6-10.6,27.8,0,38.4
		l34.3,34.3c5.1,5.1,11.9,8,19.2,8c7.3,0,14.1-2.8,19.2-8l68.7-68.7c10.6-10.6,10.6-27.8,0-38.4
		C332.3,244.8,325.4,241.9,318.2,241.9z"/>
	<path class="st3" d="M376,130c19.9,0,36,16.1,36,36v200c0,19.9-16.1,36-36,36H136c-19.9,0-36-16.1-36-36V166c0-19.9,16.1-36,36-36
		H376 M376,122H136c-24.3,0-44,19.7-44,44v200c0,24.3,19.7,44,44,44h240c24.3,0,44-19.7,44-44V166C420,141.7,400.3,122,376,122z"/>
</g>
</svg>
